<svg width="496" height="496" viewBox="0 0 496 496" fill="none" xmlns="http://www.w3.org/2000/svg">
<path fill-rule="evenodd" clip-rule="evenodd" d="M494.54 0C495.074 0 495.608 0.666885 495.608 1.4668C495.608 6.6668 464.007 48.8006 428.407 91.334C345.474 190.267 247.207 291.067 146.674 380.4C78.6753 440.799 4.01011 499.598 0.140837 495.601C-1.85916 493.734 17.6072 466.134 48.007 427.601C56.5397 416.801 64.0064 406.402 64.4074 404.534C64.9408 402.668 64.9407 397.867 64.674 393.601C64.274 387.201 63.0738 384.267 57.7404 376C13.6073 307.867 8.00747 222.534 42.9406 149.601C73.3406 86.2673 130.008 40.5337 197.608 24.667C218.941 19.7337 234.808 18.2674 259.341 19.0674C301.474 20.4008 339.341 32.0001 374.941 54.2666C397.207 68.1332 403.207 67.7338 423.74 51.0674C448.673 30.8017 491.47 0.00293052 494.54 0ZM299.474 103.467C278.407 96.4002 250.407 94.2672 226.941 97.8672C197.074 102.534 168.274 117.067 145.474 138.934C130.407 153.333 122.408 164.134 113.608 182C92.141 225.467 92.1411 273.867 113.608 318.267C121.874 335.2 133.341 348.934 142.141 352.4C155.874 358 165.208 350.266 263.341 251.467C345.074 169.067 355.608 157.2 355.608 145.867C355.608 132.934 330.141 113.733 299.474 103.467Z" fill="black"/>
<path d="M429.474 121.2C434.674 118.934 441.34 120.934 445.74 125.867C448.007 128.534 452.674 136.267 456.007 143.067C490.14 211.867 488.141 294.401 450.674 360.534C420.941 412.801 372.14 451.468 314.274 468.534C267.474 482.401 211.607 480 166.274 462.4C156.007 458.4 138.14 449.733 130.807 445.2C124.007 441.067 121.341 430.534 125.474 424.534C128.674 420.001 167.341 387.467 171.874 385.601C176.407 383.601 174.807 383.334 197.74 391.867C215.34 398.267 227.341 400.4 248.941 400.4C272.274 400.534 286.408 398.134 305.341 390.534C347.741 373.734 379.607 341.2 394.674 299.334C407.341 264.001 406.674 225.334 392.807 189.867C386.54 174.001 386.408 170 391.341 163.733C401.208 151.067 426.94 122.267 429.474 121.2Z" fill="black"/>
</svg>
